<svg xmlns="http://www.w3.org/2000/svg" width="900" height="900" viewBox="0 0 900 900">
  <defs>
    <linearGradient id="g" x1="0" y1="0" x2="1" y2="1">
      <stop offset="0" stop-color="#ffb000" stop-opacity=".85"/>
      <stop offset=".65" stop-color="#ff6a00" stop-opacity=".55"/>
      <stop offset="1" stop-color="#ffd76a" stop-opacity=".40"/>
    </linearGradient>
    <filter id="blur" x="-20%" y="-20%" width="140%" height="140%">
      <feGaussianBlur stdDeviation="10"/>
    </filter>
  </defs>

  <!-- soft blobs -->
  <circle cx="250" cy="240" r="170" fill="url(#g)" filter="url(#blur)" opacity=".30"/>
  <circle cx="660" cy="310" r="210" fill="url(#g)" filter="url(#blur)" opacity=".22"/>
  <circle cx="520" cy="700" r="240" fill="url(#g)" filter="url(#blur)" opacity=".18"/>

  <!-- map-ish grid -->
  <g opacity=".38" stroke="url(#g)" stroke-width="3" fill="none" stroke-linecap="round">
    <path d="M120 320 C220 220, 310 210, 420 260 S650 340, 760 270"/>
    <path d="M150 560 C240 500, 320 470, 430 520 S640 640, 760 560"/>
    <path d="M200 180 C260 260, 310 320, 380 360 S540 430, 620 520 S720 700, 780 760"/>
    <path d="M120 720 C220 680, 310 620, 390 590 S520 560, 620 450 S720 260, 780 160"/>
    <path d="M280 140 C360 220, 420 260, 520 290 S680 350, 780 420"/>
    <path d="M110 450 C240 430, 330 420, 420 420 S620 430, 790 450"/>
  </g>

  <!-- pins -->
  <g opacity=".9">
    <g transform="translate(595 310)">
      <path d="M0-78c-32 0-58 26-58 58 0 44 58 110 58 110s58-66 58-110c0-32-26-58-58-58Z" fill="url(#g)"/>
      <circle cx="0" cy="-20" r="18" fill="#0b1220" opacity=".85"/>
    </g>
    <g transform="translate(320 560) scale(.92)">
      <path d="M0-78c-32 0-58 26-58 58 0 44 58 110 58 110s58-66 58-110c0-32-26-58-58-58Z" fill="url(#g)"/>
      <circle cx="0" cy="-20" r="18" fill="#0b1220" opacity=".85"/>
    </g>
    <g transform="translate(220 290) scale(.78)">
      <path d="M0-78c-32 0-58 26-58 58 0 44 58 110 58 110s58-66 58-110c0-32-26-58-58-58Z" fill="url(#g)"/>
      <circle cx="0" cy="-20" r="18" fill="#0b1220" opacity=".85"/>
    </g>
  </g>

  <!-- phone-ish frame -->
  <g opacity=".55">
    <rect x="255" y="185" width="420" height="610" rx="62" fill="none" stroke="url(#g)" stroke-width="6"/>
    <rect x="286" y="238" width="358" height="520" rx="40" fill="none" stroke="url(#g)" stroke-width="3" opacity=".55"/>
    <circle cx="465" cy="212" r="10" fill="url(#g)" opacity=".85"/>
  </g>
</svg>
